<?xml version="1.0" encoding="utf-8"?>
<svg width="325" height="26" viewBox="0 0 325 26" fill="none" xmlns="http://www.w3.org/2000/svg">
	<path d="M51.3445 1.63851V17.5127L29.6371 1.27954H28.5742V25.2504H33.1937V9.29642L55.1055 25.8088H56.0049V1.63851H51.3445Z" fill="#00445F" />
	<path d="M72.687 1.63867H60.1367V25.2506H72.687C82.7844 25.2506 89.0799 21.7407 89.0799 13.4446C89.0391 5.2682 82.6209 1.63867 72.687 1.63867ZM84.2561 13.5244C84.2152 19.7066 80.4133 21.1025 71.9511 21.2222H64.7562V5.70694H71.9511C80.6586 5.78671 84.1743 7.50176 84.2561 13.5244Z" fill="#00445F" />
	<path d="M116.019 1.63867V14.8406C115.938 19.906 113.975 21.7008 106.535 21.7806C99.095 21.6609 97.1327 19.8262 97.051 14.7608V1.63867H92.8812H92.3906V15.1597C92.3906 22.4187 97.5007 25.6893 106.576 25.6893C115.692 25.6893 120.598 22.339 120.639 15.0799V1.63867H116.469H116.019Z" fill="#00445F" />
	<path d="M152.115 8.89774C152.115 3.75258 147.986 1.63867 140.872 1.63867H124.766V25.2506H128.935H129.426V16.2366H139.523L147.577 25.2506H147.781H152.196H153.259L144.96 15.9574C149.498 15.1597 152.155 12.7666 152.115 8.89774ZM129.426 5.66705H140.505C145.655 5.74682 147.372 6.42487 147.372 8.97751C147.372 11.5301 145.41 12.288 140.505 12.3677H129.426V5.66705Z" fill="#00445F" />
	<path d="M171.371 0.441895L154.855 25.2504H159.802L162.704 20.863H180.119L183.063 25.2504H188.214L171.371 0.441895ZM177.38 16.8346H165.362L171.33 7.8605L177.38 16.8346Z" fill="#00445F" />
	<path d="M213.354 1.63851V17.5127L191.606 1.27954H190.543V25.2504H195.203V9.29642L217.074 25.8088H217.974V1.63851H213.354Z" fill="#00445F" />
	<path d="M247.406 18.6705C245.73 20.2659 243.113 21.7815 237.145 21.8214C229.95 21.7416 226.23 19.1491 226.189 13.4854C226.23 7.98129 229.991 5.26911 237.145 5.18934C242.623 5.18934 245.035 6.30612 247.079 8.02117L247.447 8.34025L250.104 5.06968L249.736 4.79049C246.793 2.27773 242.786 1.24072 237.186 1.24072C228.356 1.24072 221.365 5.34888 221.324 13.5253C221.324 21.8613 228.315 25.6902 237.186 25.6902C237.227 25.6902 237.227 25.6902 237.268 25.6902C243.113 25.6902 247.242 24.4538 250.104 21.8214L250.431 21.5023L247.774 18.3115L247.406 18.6705Z" fill="#00445F" />
	<path d="M258.281 21.0627V15.1597H274.347V11.1313H258.281V5.82659H277.454V1.63867H253.621V25.2506H278.354V21.0627H258.281Z" fill="#00445F" />
	<path d="M4.61947 21.0627V15.1597H20.7263V11.1313H4.66035V5.82659H23.7923V1.63867H0V25.2506H24.7326V21.0627H4.61947Z" fill="#00445F" />
	<path d="M298.219 20.5438C298.995 20.5438 300.508 20.5837 301.775 20.5837C303.615 20.5837 305.455 21.2218 309.134 16.994L299.772 17.1536L298.219 20.5438ZM310.81 10.3731C307.58 10.3731 303.983 10.3731 302.879 10.3731L301.039 14.4015L309.583 14.3217C309.583 14.3217 315.348 14.1622 318.209 8.93726C318.168 8.93726 315.429 10.3731 310.81 10.3731Z" fill="#FD7F20" />
	<path d="M308.522 7.06303C315.104 7.06303 321.604 6.50464 324.261 1.63867H296.708L291.598 25.2506H292.006L296.176 25.2905H296.544C297.689 25.2905 299.692 24.9714 301.491 23.4159L293.519 23.4558L300.755 7.10292L308.522 7.06303Z" fill="#FD7F20" />
</svg>